Coordinates
version=1
nRows=5
nColumns=40
inDegrees=yes

Units are S.I. units (second, meters, Newtons, ...)
If the header above contains a line with 'inDegrees', this indicates whether rotational values are in degrees (yes) or radians (no).

endheader
time	pelvis_tilt	pelvis_list	pelvis_rotation	pelvis_tx	pelvis_ty	pelvis_tz	hip_flexion_r	hip_adduction_r	hip_rotation_r	knee_angle_r	knee_angle_r_beta	ankle_angle_r	subtalar_angle_r	mtp_angle_r	hip_flexion_l	hip_adduction_l	hip_rotation_l	knee_angle_l	knee_angle_l_beta	ankle_angle_l	subtalar_angle_l	mtp_angle_l	lumbar_extension	lumbar_bending	lumbar_rotation	arm_flex_r	arm_add_r	arm_rot_r	elbow_flex_r	pro_sup_r	wrist_flex_r	wrist_dev_r	arm_flex_l	arm_add_l	arm_rot_l	elbow_flex_l	pro_sup_l	wrist_flex_l	wrist_dev_l
      3.89166667	      3.02166765	     -1.57565811	      4.20962342	     -0.18620275	      1.09773195	      0.04636168	     53.64954760	     -9.05578267	     -0.17078331	    100.12328315	      1.74748095	    -16.41521260	    -34.98264491	      0.00000000	     46.46067377	     -5.76444058	      4.59440842	     47.94135060	      0.83673442	    -20.59644015	    -24.39382766	      0.00000000	    -59.91044004	      2.28608303	     -2.59820112	     87.19756287	     -3.17537322	      6.21100067	     32.30488973	      6.85397017	      0.00000000	      0.00000000	     89.66510572	    -17.03770787	     26.90128310	     45.97580465	     88.93894912	      0.00000000	      0.00000000
      3.90000000	      3.31579814	     -2.05267994	      4.34680666	     -0.18589647	      1.09790184	      0.04634672	     54.36460641	     -8.76069188	     -0.37608416	    101.42953305	      1.77027931	    -16.23771212	    -35.36800100	      0.00000000	     44.97089693	     -6.27955782	      4.61634490	     46.34208442	      0.80882196	    -21.32684592	    -24.08698971	      0.00000000	    -60.15243578	      2.74638399	     -2.19736777	     87.20420362	     -3.15108682	      6.03948728	     32.36249553	      7.39716327	      0.00000000	      0.00000000	     89.64704220	    -17.00464519	     26.82297392	     45.86025442	     88.93741687	      0.00000000	      0.00000000
      3.90833333	      3.38986539	     -2.17062177	      4.17413375	     -0.18569843	      1.09761127	      0.04646073	     55.47090307	     -8.48659295	      0.03197167	    102.84224937	      1.79493586	    -15.46852472	    -35.60763753	      0.00000000	     43.62231872	     -6.77623123	      3.97346934	     44.81391979	      0.78215045	    -21.45681041	    -22.91874001	      0.00000000	    -60.17077405	      2.74941913	     -2.02744050	     87.25091502	     -3.13116735	      6.39091222	     32.25026699	      7.01858276	      0.00000000	      0.00000000	     89.63989890	    -17.15703264	     27.13877778	     45.81206517	     88.93754498	      0.00000000	      0.00000000
      3.91666667	      3.26950443	     -2.56993789	      4.30458212	     -0.18578731	      1.09704086	      0.04631123	     56.79097238	     -8.30030602	     -0.03178610	    104.15918247	      1.81792068	    -14.78092270	    -34.87293800	      0.00000000	     42.62677718	     -7.17059167	      3.98498959	     43.33497719	      0.75633803	    -21.78200218	    -22.22479222	      0.00000000	    -59.98503490	      3.16347917	     -1.77202545	     87.36395181	     -2.99795676	      6.06670265	     32.00008889	      8.60818016	      0.00000000	      0.00000000	     89.61187302	    -17.01790736	     26.69030741	     45.49898691	     88.78402083	      0.00000000	      0.00000000
      3.92500000	      3.26027610	     -2.94395817	      4.34451434	     -0.18581834	      1.09673886	      0.04615693	     57.89851730	     -8.07273102	     -0.07605104	    105.32182251	      1.83821258	    -14.14356514	    -34.49834611	      0.00000000	     41.56367260	     -7.65744960	      3.78003270	     42.02228968	      0.73342731	    -22.31080929	    -21.62685991	      0.00000000	    -59.93165070	      3.49626968	     -1.43157515	     87.48533661	     -2.95072064	      5.87202571	     31.76809890	      9.30034263	      0.00000000	      0.00000000	     89.60705171	    -16.94897532	     26.60905000	     45.23328171	     88.67491561	      0.00000000	      0.00000000
